<svg width="218" height="250" viewBox="0 0 218 250" fill="none" xmlns="http://www.w3.org/2000/svg">
<path id="Vector" d="M109 108.482C124.282 108.482 137.111 118.808 140.735 132.77C145.292 150.275 144.676 169.46 164.704 179.421C182.482 185.454 189.208 193.035 189.208 213.361C189.208 229.584 175.288 246.828 157.342 248.98C137.275 251.985 121.655 248.056 108.995 240.861C96.3345 248.056 80.7094 251.991 60.6698 248.98C42.7122 246.828 28.7984 229.524 28.7984 213.361C28.7984 193.47 35.976 185.052 53.7211 179.285C75.5592 168.161 72.6271 148.661 77.4994 131.911C79.5024 125.134 83.6553 119.187 89.3349 114.963C95.0146 110.738 101.915 108.465 109 108.482ZM209.045 96.3956C203.634 91.7054 181.545 110.015 174.596 119.069C170.372 123.901 167.746 130.542 167.746 137.868C167.746 152.601 178.318 164.547 191.328 164.547C201.225 164.547 209.694 157.683 213.198 147.922C220.005 130.368 220.381 106.211 209.045 96.3956ZM8.94411 96.3956C-2.37549 106.211 -2.01035 130.368 4.80758 147.922C8.31191 157.683 16.7757 164.547 26.6674 164.547C39.6874 164.547 50.2495 152.601 50.2495 137.868C50.2495 130.542 47.628 123.901 43.4043 119.069C36.4501 110.015 14.3668 91.7054 8.94411 96.3956ZM138.076 0.163486C193.055 9.46768 189.197 101.803 145.177 94.363C132.479 92.2109 123.05 80.6784 121.617 66.9015C120.162 52.8909 116.886 -3.41254 138.076 0.163486ZM79.9246 0.163486C101.12 -3.41797 97.8387 52.8854 96.3835 66.8961C94.9502 80.6784 85.5326 92.2054 72.8342 94.3576C28.8038 101.809 24.9507 9.46768 79.9246 0.163486Z" fill="#D6EBDC" fill-opacity="0.6"/>
</svg>
