<svg width="109" height="51" viewBox="0 0 109 51" fill="none" xmlns="http://www.w3.org/2000/svg">
<g id="Frame" clip-path="url(#clip0_14_88)">
<g id="Group">
<g id="Group_2">
<path id="Vector" d="M107.987 8.14503H1.01346C0.453389 8.14503 0 7.69252 0 7.16016C0 6.60119 0.453389 6.14868 1.01346 6.14868H108.013C108.573 6.14868 109.027 6.60119 109.027 7.16016C109 7.69252 108.547 8.14503 107.987 8.14503Z" fill="white"/>
</g>
<g id="Group_3">
<path id="Vector_2" d="M107.987 44.9045H1.01346C0.453389 44.9045 0 44.452 0 43.9197C0 43.3607 0.453389 42.9082 1.01346 42.9082H108.013C108.573 42.9082 109.027 43.3607 109.027 43.9197C109 44.452 108.547 44.9045 107.987 44.9045Z" fill="white"/>
</g>
<g id="Group_4">
<path id="Vector_3" d="M107.987 8.14503H1.01346C0.453389 8.14503 0 7.69252 0 7.16016C0 6.60119 0.453389 6.14868 1.01346 6.14868H108.013C108.573 6.14868 109.027 6.60119 109.027 7.16016C109 7.69252 108.547 8.14503 107.987 8.14503Z" fill="white"/>
</g>
<g id="Group_5">
<path id="Vector_4" d="M107.987 44.9045H1.01346C0.453389 44.9045 0 44.452 0 43.9197C0 43.3607 0.453389 42.9082 1.01346 42.9082H108.013C108.573 42.9082 109.027 43.3607 109.027 43.9197C109 44.452 108.547 44.9045 107.987 44.9045Z" fill="white"/>
</g>
<g id="Group_6">
<path id="Vector_5" d="M80.0364 7.16022C80.0364 3.75312 77.2894 1.01147 73.8757 1.01147C70.4619 1.01147 67.7149 3.75312 67.7149 7.16022C67.7149 10.5673 70.4619 13.309 73.8757 13.309C77.2894 13.309 80.0364 10.5407 80.0364 7.16022Z" fill="white"/>
<path id="Vector_6" d="M73.8757 14.2938C69.9285 14.2938 66.7015 11.0731 66.7015 7.13361C66.7015 3.22077 69.9285 0 73.8757 0C77.8228 0 81.0499 3.22077 81.0499 7.16023C81.0499 11.0997 77.8228 14.2938 73.8757 14.2938ZM73.8757 1.99635C71.022 1.99635 68.7017 4.31211 68.7017 7.16023C68.7017 10.0084 71.022 12.3241 73.8757 12.3241C76.7294 12.3241 79.0497 10.0084 79.0497 7.16023C79.0497 4.31211 76.7294 1.99635 73.8757 1.99635Z" fill="white"/>
</g>
<g id="Group_7">
<path id="Vector_7" d="M31.6305 49.9884C35.033 49.9884 37.7913 47.2355 37.7913 43.8397C37.7913 40.4438 35.033 37.6909 31.6305 37.6909C28.228 37.6909 25.4698 40.4438 25.4698 43.8397C25.4698 47.2355 28.228 49.9884 31.6305 49.9884Z" fill="#ACD4F7"/>
<path id="Vector_8" d="M31.6305 50.9999C27.6834 50.9999 24.4563 47.7791 24.4563 43.8397C24.4563 39.9002 27.6834 36.6794 31.6305 36.6794C35.5777 36.6794 38.8048 39.9002 38.8048 43.8397C38.8048 47.7791 35.5777 50.9999 31.6305 50.9999ZM31.6305 38.7024C28.7769 38.7024 26.4566 41.0182 26.4566 43.8663C26.4566 46.7144 28.7769 49.0302 31.6305 49.0302C34.4842 49.0302 36.8045 46.7144 36.8045 43.8663C36.8045 41.0182 34.4842 38.7024 31.6305 38.7024Z" fill="white"/>
</g>
</g>
</g>
<defs>
<clipPath id="clip0_14_88">
<rect width="109" height="51" fill="white"/>
</clipPath>
</defs>
</svg>
