<svg width="96" height="83" viewBox="0 0 96 83" fill="none" xmlns="http://www.w3.org/2000/svg">
<g id="Group 18">
<path id="Soft Star" d="M70.3141 20.7055C71.0785 20.7817 71.0785 21.7126 70.3141 21.7888L63.9017 22.4274C55.6215 23.252 49.0932 28.7311 48.1107 35.6805L47.3499 41.0624C47.2591 41.704 46.1499 41.704 46.0591 41.0624L45.2983 35.6805C44.3158 28.7311 37.7875 23.252 29.5074 22.4274L23.0949 21.7888C22.3305 21.7126 22.3305 20.7817 23.0949 20.7055L29.5074 20.067C37.7875 19.2424 44.3158 13.7633 45.2983 6.81383L46.0591 1.43195C46.1499 0.790422 47.2591 0.790422 47.3499 1.43195L48.1107 6.81383C49.0932 13.7633 55.6215 19.2424 63.9017 20.067L70.3141 20.7055Z" fill="#07A081"/>
<path id="Soft Star_2" d="M95.3607 41.4338C96.1251 41.5099 96.1251 42.4408 95.3607 42.517L88.9483 43.1556C80.6681 43.9802 74.1398 49.4593 73.1573 56.4087L72.3965 61.7906C72.3057 62.4322 71.1965 62.4322 71.1057 61.7906L70.3449 56.4087C69.3624 49.4593 62.8341 43.9802 54.554 43.1556L48.1415 42.517C47.3771 42.4408 47.3771 41.5099 48.1415 41.4338L54.554 40.7952C62.8341 39.9706 69.3624 34.4915 70.3449 27.542L71.1057 22.1602C71.1965 21.5186 72.3057 21.5186 72.3965 22.1602L73.1573 27.542C74.1398 34.4915 80.6681 39.9706 88.9483 40.7952L95.3607 41.4338Z" fill="#07A081"/>
<path id="Soft Star_3" d="M71.1778 62.162C71.9422 62.2382 71.9422 63.1691 71.1778 63.2452L64.7654 63.8838C56.4852 64.7084 49.9569 70.1875 48.9744 77.1369L48.2135 82.5188C48.1228 83.1604 47.0136 83.1604 46.9228 82.5188L46.162 77.1369C45.1795 70.1875 38.6512 64.7084 30.3711 63.8838L23.9586 63.2452C23.1941 63.1691 23.1941 62.2381 23.9586 62.162L30.3711 61.5234C38.6512 60.6988 45.1795 55.2197 46.162 48.2702L46.9228 42.8884C47.0136 42.2468 48.1228 42.2468 48.2135 42.8884L48.9744 48.2702C49.9569 55.2197 56.4852 60.6988 64.7654 61.5234L71.1778 62.162Z" fill="#07A081"/>
<path id="Soft Star_4" d="M48.2904 41.8656C49.0548 41.9418 49.0548 42.8727 48.2904 42.9489L41.878 43.5875C33.5978 44.412 27.0695 49.8912 26.087 56.8405L25.3261 62.2224C25.2354 62.864 24.1262 62.864 24.0354 62.2224L23.2746 56.8405C22.2921 49.8912 15.7638 44.412 7.48366 43.5875L1.07122 42.9489C0.306747 42.8727 0.306747 41.9418 1.07122 41.8656L7.48366 41.227C15.7638 40.4024 22.2921 34.9233 23.2746 27.9739L24.0354 22.592C24.1262 21.9505 25.2354 21.9505 25.3261 22.592L26.087 27.9739C27.0695 34.9233 33.5978 40.4024 41.878 41.227L48.2904 41.8656Z" fill="#07A081"/>
</g>
</svg>
