<svg width="175" height="151" viewBox="0 0 175 151" fill="none" xmlns="http://www.w3.org/2000/svg">
<g id="Group 1047">
<path id="Soft Star" d="M127.678 36.127C129.076 36.2663 129.076 37.9687 127.678 38.108L115.951 39.2759C100.809 40.7838 88.87 50.8039 87.0732 63.5127L85.6818 73.355C85.5158 74.5283 83.4874 74.5283 83.3214 73.355L81.9299 63.5127C80.1332 50.8039 68.1944 40.7838 53.0519 39.2759L41.325 38.108C39.927 37.9687 39.927 36.2663 41.325 36.127L53.0519 34.9591C68.1944 33.4512 80.1332 23.4311 81.9299 10.7221L83.3214 0.879911C83.4874 -0.293306 85.5158 -0.293306 85.6818 0.879911L87.0732 10.7221C88.87 23.4311 100.809 33.4512 115.951 34.9591L127.678 36.127Z" fill="#83CDB8"/>
<path id="Soft Star_2" d="M173.483 74.0342C174.881 74.1735 174.881 75.8759 173.483 76.0153L161.756 77.1831C146.613 78.6911 134.675 88.7111 132.878 101.42L131.486 111.262C131.32 112.436 129.292 112.436 129.126 111.262L127.734 101.42C125.938 88.7111 113.999 78.691 98.8565 77.1831L87.1296 76.0153C85.7315 75.8759 85.7315 74.1735 87.1296 74.0342L98.8565 72.8664C113.999 71.3584 125.938 61.3383 127.734 48.6294L129.126 38.7871C129.292 37.6139 131.32 37.6139 131.486 38.7871L132.878 48.6294C134.675 61.3383 146.613 71.3584 161.756 72.8664L173.483 74.0342Z" fill="#83CDB8"/>
<path id="Soft Star_3" d="M129.258 111.942C130.656 112.081 130.656 113.783 129.258 113.923L117.531 115.091C102.388 116.599 90.4494 126.619 88.6527 139.327L87.2613 149.17C87.0952 150.343 85.0668 150.343 84.9008 149.17L83.5094 139.327C81.7126 126.619 69.7739 116.599 54.6314 115.091L42.9045 113.923C41.5064 113.783 41.5064 112.081 42.9045 111.942L54.6314 110.774C69.7739 109.266 81.7126 99.2458 83.5094 86.5368L84.9008 76.6946C85.0668 75.5214 87.0952 75.5214 87.2613 76.6946L88.6527 86.5368C90.4494 99.2458 102.388 109.266 117.531 110.774L129.258 111.942Z" fill="#83CDB8"/>
<path id="Soft Star_4" d="M87.4018 74.8242C88.7997 74.9636 88.7997 76.666 87.4018 76.8053L75.6749 77.9731C60.5323 79.4811 48.5935 89.5011 46.7968 102.21L45.4053 112.052C45.2393 113.226 43.2109 113.226 43.0449 112.052L41.6534 102.21C39.8567 89.5011 27.9179 79.4811 12.7754 77.9731L1.04854 76.8053C-0.349504 76.666 -0.349504 74.9636 1.04854 74.8242L12.7755 73.6564C27.9179 72.1484 39.8567 62.1284 41.6534 49.4194L43.0449 39.5772C43.2109 38.404 45.2393 38.404 45.4053 39.5772L46.7968 49.4194C48.5935 62.1284 60.5323 72.1484 75.6749 73.6564L87.4018 74.8242Z" fill="#83CDB8"/>
</g>
</svg>
